<?xml version="1.0" standalone="no"?>
<svg viewBox="0 0 200 200" xmlns="http://www.w3.org/2000/svg">
  <path fill="#FF0066" d="M44.1,-71.1C52.2,-63.4,50.4,-42.8,51.3,-27.4C52.2,-12,55.8,-1.7,59.4,12.1C63,26,66.7,43.5,60.6,55C54.5,66.5,38.6,72,22.5,76.7C6.5,81.3,-9.8,85.2,-20.6,78.3C-31.4,71.4,-36.6,53.9,-42.3,40.5C-48,27.1,-54,17.9,-57,7.3C-60,-3.4,-59.9,-15.3,-58.1,-29.5C-56.3,-43.7,-52.7,-60.1,-42.7,-66.9C-32.7,-73.7,-16.4,-70.9,0.8,-72.2C18,-73.4,36,-78.7,44.1,-71.1Z" transform="translate(100 100)" />
</svg>
